<svg xmlns="http://www.w3.org/2000/svg" viewBox="0 0 105 105"><defs><path id="b" d="M10 21c0-5 5-10 10-10h95v95c0 5-5 10-10 10H10z"/><path id="c" d="M79 74.5c1-.2 2.2-.8 2.7-1.5.4-.7.5-1.6.3-2.6-.3-1-.7-1.7-1.5-2-1-.7-3-.5-4-.2 0 0-14.7 2.4-20.7 2.4-13 0-17.6-6.6-17.6-14.8s4.3-15.6 17.4-15.6h33.6c1 0 1.8-.3 2.4-.9.6-.6.8-1.4.8-2.4s-.2-1.7-.8-2.3a3 3 0 0 0-2.4-1H55.8c-25-.3-31.8 10-31.8 22.2s6.8 22.8 31.8 22.4c11.3-.3 23.2-3.7 23.2-3.7z"/><path id="d" d="M46.5 52.7c-1 .2-2.2.8-2.6 1.6-.5.7-.6 1.5-.3 2.5.2 1 .6 1.7 1.4 2 1.1.7 3 .5 4 .2 0 0 14.8-2.3 20.7-2.3 13.1 0 17.7 6.5 17.7 14.7C87.4 79.5 83 87 69.9 87H36.4a3.2 3.2 0 0 0-3.4 3.3c0 1 .4 1.7 1 2.4.6.6 1.4.9 2.4.9h15.5l17.8.1c25 .2 31.8-10.2 31.8-22.3 0-12.2-6.8-22.8-31.8-22.3-11.2.2-23.2 3.6-23.2 3.6z"/><linearGradient id="a" x1="14" x2="177.9" y1="11" y2="185.4" gradientUnits="userSpaceOnUse"><stop offset="0" stop-color="#ffb774"/><stop offset="1" stop-color="#ea4449"/></linearGradient></defs><use fill="url(#a)" href="#b" transform="translate(-10 -11)"/><use fill="#fff" href="#c" transform="translate(-10 -11)"/><use fill="#fff" href="#d" transform="translate(-10 -11)"/></svg>