<svg xmlns="http://www.w3.org/2000/svg" xmlns:xlink="http://www.w3.org/1999/xlink" width="78" height="61" viewBox="0 0 78 61"><defs><path id="dc8qa" d="M79.006 74.55c.995-.24 2.229-.882 2.661-1.588.43-.708.525-1.557.285-2.552-.224-.924-.662-1.672-1.407-2.085-1.132-.628-2.987-.393-3.982-.152 0 0-14.803 2.388-20.715 2.388-13.123 0-17.679-6.565-17.679-14.728S42.52 40.22 55.643 40.22l16.652-.016h16.861c1.023 0 1.827-.293 2.414-.877.584-.586.877-1.39.877-2.413 0-.951-.293-1.737-.877-2.357-.587-.623-1.39-.933-2.414-.933h-15.56l-17.748-.113C30.794 33.291 24 43.673 24 55.833c0 12.159 6.798 22.791 31.848 22.32 11.217-.21 23.158-3.603 23.158-3.603z"/><path id="dc8qb" d="M46.536 52.662c-.995.24-2.229.884-2.661 1.589-.43.707-.527 1.558-.286 2.551.224.925.661 1.674 1.407 2.086 1.133.627 2.988.393 3.983.151 0 0 14.801-2.387 20.714-2.387 13.124 0 17.68 6.564 17.68 14.728 0 8.163-4.351 15.612-17.476 15.612l-16.651.016h-16.86c-1.025 0-1.828.294-2.414.878-.584.585-.877 1.389-.877 2.412 0 .952.293 1.738.877 2.36.586.62 1.39.93 2.414.93h15.56l17.747.113c25.054.22 31.848-10.161 31.848-22.321 0-12.16-6.798-22.792-31.848-22.32-11.216.21-23.157 3.602-23.157 3.602z"/></defs><g><g transform="translate(-24 -33)"><use fill="#fff" xlink:href="#dc8qa"/></g><g transform="translate(-24 -33)"><use fill="#fff" xlink:href="#dc8qb"/></g></g></svg>